<svg xmlns="http://www.w3.org/2000/svg" fill="none" viewBox="0 0 48 48" id="Eye-Off--Streamline-Ionic-Filled" height="48" width="48">
  <desc>
    Eye Off Streamline Icon: https://streamlinehq.com
  </desc>
  <path fill="#000000" d="M40.4938 41.9992c-0.1969 0.0004 -0.392 -0.0384 -0.574 -0.1138 -0.1821 -0.0755 -0.3472 -0.1862 -0.4863 -0.3259L6.43401 8.55998c-0.26943 -0.28359 -0.41741 -0.66121 -0.4124 -1.05235 0.005 -0.39114 0.16261 -0.76485 0.4392 -1.04145 0.27661 -0.27659 0.65031 -0.43419 1.04145 -0.4392 0.39113 -0.00502 0.76875 0.14298 1.05234 0.4124L41.5541 39.4389c0.2097 0.2098 0.3524 0.477 0.4103 0.7679 0.0578 0.2909 0.0281 0.5924 -0.0853 0.8663 -0.1136 0.2741 -0.3058 0.5082 -0.5522 0.6731 -0.2466 0.1649 -0.5365 0.2529 -0.8331 0.253Z" stroke-width="1"></path>
  <path fill="#000000" d="m23.2447 29.6094 -4.8549 -4.8549c-0.0278 -0.0275 -0.0636 -0.0457 -0.1023 -0.0519 -0.0386 -0.0063 -0.0783 -0.0002 -0.1134 0.0173 -0.0351 0.0175 -0.0637 0.0455 -0.082 0.0801 -0.0184 0.0347 -0.0253 0.0741 -0.0201 0.113 0.196 1.2596 0.7874 2.4241 1.6888 3.3255 0.9013 0.9014 2.066 1.4928 3.3255 1.6887 0.0388 0.0054 0.0783 -0.0017 0.1129 -0.0199 0.0346 -0.0184 0.0627 -0.0471 0.0802 -0.0822 0.0174 -0.035 0.0235 -0.0747 0.0173 -0.1134 -0.0063 -0.0386 -0.0244 -0.0744 -0.052 -0.1023Z" stroke-width="1"></path>
  <path fill="#000000" d="m24.7443 18.3884 4.8624 4.8605c0.0277 0.0279 0.0636 0.0465 0.1024 0.0529 0.0389 0.0064 0.0789 0.0004 0.1141 -0.0171 0.0354 -0.0175 0.0641 -0.0457 0.0825 -0.0806 0.0184 -0.0349 0.0252 -0.0746 0.0197 -0.1136 -0.1956 -1.2613 -0.7873 -2.4276 -1.6898 -3.3301 -0.9026 -0.9025 -2.0688 -1.4944 -3.3301 -1.6898 -0.0391 -0.0061 -0.079 0.0004 -0.1142 0.0185 -0.0351 0.018 -0.0637 0.0466 -0.0816 0.0819 -0.0178 0.0352 -0.0241 0.0753 -0.0179 0.1143 0.0062 0.0391 0.0245 0.075 0.0525 0.1031Z" stroke-width="1"></path>
  <path fill="#000000" d="M46.0263 25.6268c0.3103 -0.4871 0.4744 -1.0531 0.4727 -1.6308 -0.0016 -0.5776 -0.169 -1.1426 -0.4821 -1.6279 -2.4806 -3.8362 -5.699 -7.0949 -9.3064 -9.4246 -3.9966 -2.5799 -8.4027 -3.94399 -12.7452 -3.94399 -2.2892 0.00314 -4.5629 0.3764 -6.733 1.10529 -0.0608 0.0202 -0.1153 0.0556 -0.1585 0.1029 -0.0432 0.0472 -0.0735 0.1048 -0.0883 0.167 -0.0146 0.0624 -0.0131 0.1274 0.0045 0.1889 0.0176 0.0616 0.0507 0.1176 0.096 0.1628l4.4287 4.4287c0.046 0.0461 0.1032 0.0794 0.1661 0.0966 0.0627 0.0173 0.129 0.0179 0.192 0.0018 1.5011 -0.3658 3.0713 -0.339 4.559 0.0778 1.4878 0.4169 2.8433 1.2097 3.9358 2.3023 1.0925 1.0925 1.8854 2.448 2.3022 3.9357 0.4169 1.4878 0.4437 3.0578 0.0779 4.559 -0.0159 0.063 -0.0153 0.129 0.002 0.1917 0.0172 0.0626 0.0505 0.1196 0.0964 0.1655l6.3703 6.3749c0.0662 0.0664 0.1549 0.1056 0.2487 0.1097 0.0937 0.0042 0.1856 -0.0269 0.2575 -0.0872 2.4521 -2.09 4.5769 -4.5359 6.3037 -7.2561Z" stroke-width="1"></path>
  <path fill="#000000" d="M23.9948 32.9987c-1.3624 0.0001 -2.7071 -0.3092 -3.9326 -0.9044 -1.2254 -0.5952 -2.2998 -1.461 -3.142 -2.5319 -0.8423 -1.0709 -1.4304 -2.3189 -1.7201 -3.6502 -0.2895 -1.3313 -0.2732 -2.7109 0.048 -4.0349 0.0159 -0.063 0.0151 -0.129 -0.0021 -0.1916 -0.0173 -0.0627 -0.0504 -0.1197 -0.0964 -0.1656l-6.26616 -6.269c-0.06644 -0.0665 -0.15544 -0.1056 -0.24938 -0.1097 -0.09393 -0.0039 -0.18594 0.0275 -0.2578 0.0882 -2.28653 1.9509 -4.40619 4.3246 -6.34397 7.0986 -0.3392 0.4869 -0.52601 1.0635 -0.53669 1.6568 -0.01068 0.5933 0.15524 1.1763 0.47669 1.6751 2.4759 3.8746 5.66148 7.138 9.21361 9.4358 4.0022 2.5902 8.3015 3.9027 12.7789 3.9027 2.3123 -0.0062 4.6097 -0.3715 6.8099 -1.0828 0.0613 -0.0196 0.1166 -0.0545 0.1603 -0.1017 0.0439 -0.0471 0.0748 -0.1046 0.09 -0.1671 0.0152 -0.0626 0.014 -0.1279 -0.0033 -0.1899 -0.0175 -0.0619 -0.0506 -0.1183 -0.096 -0.1638l-4.4503 -4.4493c-0.0459 -0.0459 -0.1029 -0.0792 -0.1656 -0.0964 -0.0626 -0.0173 -0.1286 -0.018 -0.1916 -0.002 -0.6952 0.1684 -1.4081 0.2534 -2.1234 0.2531Z" stroke-width="1"></path>
</svg>